<svg xmlns="http://www.w3.org/2000/svg" viewBox="0 0 224.28 13.74"><defs><style>.cls-1{fill:#fff;}</style></defs><title>Fichier 1</title><g id="Calque_2" data-name="Calque 2"><g id="Calque_1-2" data-name="Calque 1"><path class="cls-1" d="M223.11,1a12.77,12.77,0,0,1,1.13,2.3c.25.72-.63,1.42-2.64,2.09C219.83,6,219,6.65,219,7.22q0,1.23-6,1.66c-2,.24-4.09.44-6.22.61s-4.34.3-6.61.4q-8.69.21-17.74.21-6.42-.06-12.46-.25t-11.7-.75q-9.81-.94-19.82-1.34t-20.57-.68q-3.39-.15-7-.22c-2.4,0-4.72-.12-7-.21A295.79,295.79,0,0,0,68.72,7.73C65.7,8,62.8,8.42,60,9c-3.53.67-7.17,1.27-10.95,1.8s-7.92,1-12.45,1.37c-1.27.1-2.9.29-4.91.58-1.26.19-2.59.37-4,.54s-2.84.3-4.35.39a37.55,37.55,0,0,1-12.07-.86Q8.7,12,6.06,11.4-.36,9.89,0,8.81T5.31,6.5Q11,5.06,18.14,3.84A253.92,253.92,0,0,1,56.26.38Q69.1.09,81.93,0T107.6.1q7.55.14,14.91.36c4.91.14,9.87.38,14.91.72q11.33.86,23.4,1.08H172.9l9.82-.15c3.26,0,6.54-.12,9.81-.21,4-.1,7.93-.22,11.7-.36l11.7-.44c1,0,2.08-.07,3.21-.07S221.6,1,223.11,1Z"/></g></g></svg>