<svg xmlns="http://www.w3.org/2000/svg" viewBox="0 0 224.42 13.18"><defs><style>.cls-1{fill:#fff;}</style></defs><title>Fichier 2</title><g id="Calque_2" data-name="Calque 2"><g id="Calque_1-2" data-name="Calque 1"><path class="cls-1" d="M174,3.64q11.73.15,23.46.18t23.85-.32l1.57,0c.51,0,1,0,1.56,0-.78.43-1.5.86-2.15,1.29a11.15,11.15,0,0,1-2.93,1.23c-1.83.72-2.74,1.58-2.74,2.59a1.38,1.38,0,0,1-.39.94,4.31,4.31,0,0,1-2,.79c-1.3.38-1.95.77-1.95,1.15s-1.31.74-3.91.94l-4.5.28c-1.43.1-2.93.17-4.49.22q-3.14.15-5.87.18a57.67,57.67,0,0,1-5.86-.25L180,12.39q-3.72-.25-7.62-.47c-2.34-.19-4.83-.35-7.43-.47s-5.08-.27-7.43-.47L143.49,9.87q-7-.54-13.3-1.33-8.59-1-20.33-1.23l-8.6-.14c-2.87,0-5.73-.07-8.6-.07l-7,0c-2.34,0-4.56.06-6.64.11-.78,0-1.57,0-2.35,0l-2.34,0q-9.39-.13-18.57.25t-18.19,1q-4.31.21-8.2.21T21.5,8.39Q17.2,8,13.1,7.6T4.69,6.74A12,12,0,0,1,0,5.51l7.43-.68c2.35-.22,4.56-.45,6.65-.69,3.12-.28,6.12-.6,9-.93s5.86-.65,9-.94c2.87-.24,5.67-.45,8.41-.65s5.67-.33,8.79-.43C52.65,1.1,56,1,59.23.76s6.58-.34,10-.43Q80.54,0,91.68,0t22.09.69l10.37.68,10.36.69q9.76.72,19.54,1.11T174,3.64Z"/></g></g></svg>