<svg id="Capa_1" data-name="Capa 1" xmlns="http://www.w3.org/2000/svg" viewBox="0 0 49.2 49.2"><defs><style>.cls-1{fill:#fff;}</style></defs><title>Plan de travail 1</title><path id="facebook" class="cls-1" d="M39.16,2.4C38.86.3,33.86,0,31,0a19,19,0,0,0-9.8,2.4,12.06,12.06,0,0,0-5.8,7.9c-.4,2.3.2,8.7.2,8.9s-3,.2-4.2.2-1.4.6-1.5.9.5,8.7.5,8.7l.4,3c.7.4,3.9.2,4.4.3s.8.9.8,3,.4,10.2.4,11.9.8,1.7,2.6,1.7,8.8.3,9.2.3.8-.5.8-2.1.5-14.7.6-15,1.1,0,2,0,5.2-.3,6-.4,1.1-8,1.1-10.5S37,18.5,36,18.5s-6.1.2-6.4-.1,1-4.1,2.6-4.9,5.8-.4,6.3-.3.9-1.1.9-2S39.36,4.5,39.16,2.4Zm-3.6,16.9c.2,0,.9.8,1.1,1.1s-.1.9-.2,1-.9-1.4-1-1.6S35.46,19.3,35.56,19.3Zm2.6-9.5c-.5.1-4.9-.4-7.5.5a6.82,6.82,0,0,0-4.1,4.9c-.2,1.4-.2,4,.2,4s4,.1,5.3.1,2.1,0,2.2.2,2,2.9,2,3.1-.2,1.1-.3,1-1.9-3.2-2-3.1-.5.6-.2.9,2.1,3.2,2.1,3.3-.3.8-.4.6a42,42,0,0,0-2.4-3.8c-.1.1-.5.5-.3.8s2.5,3.6,2.5,3.7,0,1.5-.2,1.5-2.3-4-2.6-4-.5.7-.3.9,2.7,3.9,2.7,4a1,1,0,0,1-.8.3c-.2-.2-2.2-4-2.4-4s-.8.3-.6.5a33.5,33.5,0,0,1,2,3.5.69.69,0,0,1-.8-.2c-.3-.3-1.9-3.1-2.1-3s-.6.5-.4.7,2,2.4,1.8,2.5a2.77,2.77,0,0,1-1.3-.1A14.79,14.79,0,0,0,29,26.5c-.2,0-.5.4-.4.6a11.55,11.55,0,0,1,.8,1.5c-.1,0-2.3-.1-2.4.2s.1,2.1,0,2.1a14.79,14.79,0,0,0-1.3-2.1c-.2,0-.4.6-.3.8s1.7,2.1,1.7,2.3.1,1.7-.1,1.5a22.92,22.92,0,0,0-1.7-2.8c-.1.1-.4.7-.3.9s2.1,3,2.1,3.2a13.18,13.18,0,0,1,0,2c-.1-.2-2.3-4.2-2.4-4.2s-.3.9-.2,1.2,2.6,4,2.6,4.2.1,1.2-.1,1.1-2.7-4.9-2.9-4.8a3.09,3.09,0,0,0-.2,1.1c.1.3,3,4.8,3.1,4.9a6.38,6.38,0,0,1-.1,2c-.1-.1-3.1-5.3-3.3-5.3s-.3.9-.2,1.2,3.5,5,3.5,5.2.1,1.5,0,1.4-3.7-5.9-3.8-5.9-.3.8-.3,1,4,6.1,4,6.3,0,.4-.3.4a1,1,0,0,1-.7-.2c-.2-.2-3.5-5.6-3.7-5.5s-.3.9-.2,1.2,3.5,4.6,3.4,4.6-4.7-.3-5-.3a2.44,2.44,0,0,1-.7-.1s.2-.2-.3-.7-1.1-1.2-1.3-1-.2.5,0,.7.9.7.8.8a4.57,4.57,0,0,1-2-.2c-.1-.2-.1-7.4-.2-9.9s-.2-6.1-.7-6.5-4.7-.5-4.9-.7-.7-8.2-.4-8.3,4.2.1,4.8-.3.8-1.1.7-2-.7-7.2.5-9.6a13.43,13.43,0,0,1,7.1-6.2c3.6-1.4,8-1.3,11.1-.9s3.4,1,3.4,2.4C38.56,5.2,38.56,9.7,38.16,9.8ZM17.36,20.1c-.2,0-.2.8-.2,1s-1.6.1-2,.1-.8.1-.7.4c0,.1,0,.4.2.5s3.3.1,3.6.1.2-1.6.2-1.9C18.26,20,17.56,20.1,17.36,20.1Zm4.7-14.7a9.65,9.65,0,0,0-3.3,3.2,7.17,7.17,0,0,0-1.2,3.7c0,1,.1,1.7.3,1.8s.5,0,.7,0,0-2.9,1.3-5.2A5.61,5.61,0,0,1,23.46,6c.3,0,.3-.5.2-.9S22.86,5,22.06,5.4Zm6,4.8a2,2,0,0,0-1.5.7,10.52,10.52,0,0,0-1.5,2.4c-.2.5-.1,1.2.2,1.3a.82.82,0,0,0,.7-.1c.2-.1.2-1.1.6-2a3.69,3.69,0,0,1,1.8-1.5C28.46,10.9,28.26,10.3,28.06,10.2Zm5.9-8c-.4-.1-.7.8-.4.9s1.8.3,2.2.4.7,0,.8.3a24.77,24.77,0,0,0,.2,2.9c.2.1.9.4.9-.3s.1-3.4-.2-3.6S34.46,2.3,34,2.2ZM19.56,42.8c-.3.1-.4.3-.1.8a10.45,10.45,0,0,0,2.2,2.4c.3,0,.6-.3.4-.6S19.86,42.7,19.56,42.8Zm1.7-.8c-.1-.1-.6.4-.5.6,0,0,2.1,2.7,2.4,3.1s.6.5.8.3-.1-.6-.3-1A19.66,19.66,0,0,0,21.26,42Z"/></svg>