<svg id="Capa_1" data-name="Capa 1" xmlns="http://www.w3.org/2000/svg" viewBox="0 0 49.11 49.11"><defs><style>.cls-1{fill:#fff;}</style></defs><title>Plan de travail 1</title><path id="instagram" class="cls-1" d="M48.84,24.86c-.1-5.5-.3-13.4-.6-14.6s-4.1-6.8-5.4-8-3.7-1.8-5.9-1.8-20-.8-24.9-.2a13.13,13.13,0,0,0-8.1,3.6c-1.1,1-2.5,2-3.1,3.9S.14,15.16,0,21s0,12.5,0,15.3a12.45,12.45,0,0,0,2.7,7.3,16,16,0,0,0,6,4.3c1.7.6,2.4.9,7.2,1s8.2.3,14.9.2,9.2-.4,12.1-1.8,5.1-4.9,5.8-6.8S48.94,30.46,48.84,24.86Zm-13.1,20.9c-.1.1-1,.3-1.1.1a29,29,0,0,1-1.5-3.1c0-.2,1.2-.2,1.3-.1A20.45,20.45,0,0,1,35.74,45.76Zm-24.8-18.9c.1,1.2.8,5.1,3.4,7.2a12.74,12.74,0,0,0,7.1,3.2,14.79,14.79,0,0,0,7.1-1.2c1.7-.9,4.3-2.7,5.2-4.8a19,19,0,0,0,1.5-6.2,11.94,11.94,0,0,1,.3-3c.1-.1,6.7-.4,6.9-.1a121.77,121.77,0,0,1,.1,12.5c-.2,2.7-.2,4.9-1.2,5.6s-1,1.1-4.2,1.3-7.8.7-12.7.7-10.6-.1-12.6-.3S8.24,41,8,40.16s-.4-6.5-.5-10a42.43,42.43,0,0,1,.2-7.4,17,17,0,0,1,3.5-1A33,33,0,0,0,10.94,26.86Zm25.7,18.7a26.28,26.28,0,0,1-1.4-3c0-.1,1.1-.1,1.2-.1a14,14,0,0,1,1.6,2.6A3.94,3.94,0,0,1,36.64,45.56Zm3.1-.9a1.9,1.9,0,0,1-.9.3c-.1,0-1.3-2.5-1.4-2.6s1-.1,1.1,0C38.84,42.56,39.94,44.56,39.74,44.66Zm.8-.4a18.58,18.58,0,0,1-1.1-1.9c0-.1.9-.5,1-.4a10.14,10.14,0,0,1,1,1.6S40.74,44.26,40.54,44.26Zm1.6-1.4a11,11,0,0,1-.9-1.4,5.5,5.5,0,0,1,.9-.7,7.27,7.27,0,0,1,.8.9C42.94,41.76,42.34,43,42.14,42.86Zm1.3-2.1c-.2.1-.8-.9-.8-1s.1-1.3.3-1.3a13.58,13.58,0,0,1,1.2,1.2C44.24,39.76,43.64,40.76,43.44,40.76Zm1.7-14.2c-.2,5.3-.1,7.9-.2,9.5a6.36,6.36,0,0,1-.6,2.5,6.45,6.45,0,0,1-1.1-1.6c0-.2.1-4.3.2-7.5s.1-8.6,0-9.6-.4-1.4-1-1.6a66.75,66.75,0,0,0-7.1-.2c-2.2,0-2.8,0-3,.2a4,4,0,0,0-.1,1.6c.1.4.4,1.2.4,1.3s.2,5.2-.9,7.2-2,4.1-5.6,5.4-5.3,1.6-8.5.5a7.63,7.63,0,0,1-5-4.6,21.14,21.14,0,0,1-.6-6.9c.2-2.1.3-2.5.7-2.9s.7-.6.6-.9-.4-.4-1.5-.7a43.21,43.21,0,0,0-5-.3c-1-.1-1.7.1-2,1s.3,9.6.5,13.7.4,6.3,1.4,7.7a4.22,4.22,0,0,0,3.3,2.1,42.53,42.53,0,0,0,7.1.5c2.9-.1,9.8-.3,11.5-.3s3.8-.1,3.9-.1a17.3,17.3,0,0,1,1.4,3.1,2,2,0,0,1-1.1.1c-.1-.1-1.3-2.7-1.6-2.7s-.8.2-.8.4,1.4,2.3,1.3,2.3a7.5,7.5,0,0,1-1.5,0c-.1-.1-1-2.5-1.1-2.5s-.6,0-.7.2.9,2.2.8,2.2-.9.1-1-.1-.9-2.2-1.1-2.2-.6.2-.6.3.7,2,.6,2a5.65,5.65,0,0,1-1.3,0c-.1-.1-.6-1.7-.8-1.7s-.8.2-.7.4.7,1.4.5,1.4-5.7.3-10.3.1-6.4.2-8.1-.7a11.92,11.92,0,0,1-4.7-5c-.7-1.7-1-6.4-.8-9.8s-.2-8.2.1-12.9-.1-10.6,3.5-13.1A16.57,16.57,0,0,1,8.74,2c1.3-.4,3.5-.9,3.8-.6s.6,1.8.9,1.8.8-.1.7-.4-.7-1.4-.5-1.4.6-.1.8,0a13.65,13.65,0,0,1,2,3c.4,1.1.4,1.1.6,1.1a.46.46,0,0,0,.4-.5,25.11,25.11,0,0,0-1-2.7c-.5-.8-.8-1.2-.6-1.2s.6-.3.9,0a27,27,0,0,1,2.1,3.1c.5.9.4,1.2.6,1.2s.5-.1.4-.6a25.68,25.68,0,0,0-1.2-2.6c-.5-.9-.8-1.3-.7-1.3s1.3-.1,1.5.1,1.8,3.4,2.4,4.6.9,2.2,1.1,2.2.4-.1.3-.3-1.8-3.9-2.2-5.1-.6-1.5-.4-1.5.9-.2,1.1,0,1.5,3,2.5,4.9a38.65,38.65,0,0,0,1.9,3.5.36.36,0,0,0,.2-.5c-.2-.3-2-4.6-2.4-5.4S22.84.86,23,.86s1-.1,1.1.1a45.78,45.78,0,0,1,2.8,5.4A13.37,13.37,0,0,0,28,9.06c.1,0,.2-.2.2-.3s-1.2-3.5-1.9-5-1.2-2.6-1-2.6,1.2-.1,1.3.1,2.2,4.5,2.7,5.6a8.21,8.21,0,0,0,.9,1.8c.1,0,.3-.2.2-.6s-1.7-4.7-2.2-5.6-.6-1.3-.4-1.3.8-.1.9.2,2.9,6.5,3,6.5a.32.32,0,0,0,.3-.3c0-.2-1.7-4.5-2-5.3s-.4-1.1-.2-1.1,1.2,0,1.2.1a34.18,34.18,0,0,0,2.1,4.3c.2,0,.3-.1.3-.4a32.35,32.35,0,0,0-1.3-3.3c-.1-.3-.3-.5-.1-.6s1.4.1,1.4.1a11.25,11.25,0,0,0,1.2,2.1c.2,0,.7-.3.5-.7s-.8-1.6-.6-1.6.8-.1.9.1,1.2,2.6,1.5,2.6a.46.46,0,0,0,.5-.4,22.89,22.89,0,0,1-1.1-2.3c.1,0,1.1-.1,1.2.1s1,2.2,1.4,2.2.6-.4.5-.5-.9-1.7-.7-1.7.5-.1.7.2,1.5,3.4,1.6,3.4.6-.4.5-.6-1.2-2.7-1-2.8a1.15,1.15,0,0,1,1.2.6c.4.6.6,1.4.8,1.4s.6-.3.7-.3A6.72,6.72,0,0,1,45.14,8C45.24,11.06,45.34,21.26,45.14,26.56ZM9.54,4a9.82,9.82,0,0,0-3.9,1.7,7.29,7.29,0,0,0-2.5,3.7,9.07,9.07,0,0,0,.1,2.5c.2.2.7.1.9,0s.1-.8,0-1.4a4.32,4.32,0,0,1,1.1-2.7,9.33,9.33,0,0,1,3-2.4,12,12,0,0,0,1.8-.6C10.24,4.56,10.14,4.06,9.54,4Zm22.6,9.6c-.3-.1-.1-2-.2-2.2s-1.1-.3-1.1-.1a18.18,18.18,0,0,0,0,3.3c.2.3,1.9.4,2.3.4s.3-.6.2-.9S32.44,13.66,32.14,13.56Zm6.7-8.3a30.94,30.94,0,0,0-5.3.2c-.5.2-.5,1.6-.4,2.9a33.9,33.9,0,0,0,.3,4.3c.5.6,5.7.4,6.4.2s.4-4.6.3-5.7A2,2,0,0,0,38.84,5.26Zm.1,6.4a21.36,21.36,0,0,1-3.6-.1,15.26,15.26,0,0,1,0-3.7,12,12,0,0,1,3.8-.1C39.34,8,39.24,11.66,38.94,11.66Zm-19,4.3c.5-.1.3-.8,0-.9a4.71,4.71,0,0,0-2.7,1.1,6.61,6.61,0,0,0-2.5,2.8c-.2.6-.1,1.4.1,1.5a5.38,5.38,0,0,0,.8.1c.3,0,.3-1.5,1.2-2.6A5.93,5.93,0,0,1,19.94,16Zm2.5.3a6.6,6.6,0,0,0-5.3,2.4c-1.6,2-1.6,6.4-1,8.3s3.8,3.4,5,3.6,5.8-.6,7.1-2.8.9-5.6.2-7.8S25.24,16.56,22.44,16.26Zm5,11.1a7.75,7.75,0,0,1-5.5,2.3c-2.2-.1-4.2-1.2-3.9-3.7a6.58,6.58,0,0,1,2.5-4.5,7.15,7.15,0,0,1,4.1-1.9c1.5,0,2.3-.1,3,1.5S28.54,26.16,27.44,27.36Z"/></svg>