<svg id="Capa_1" data-name="Capa 1" xmlns="http://www.w3.org/2000/svg" viewBox="0 0 45.13 45.13"><defs><style>.cls-1{fill:#fff;}</style></defs><title>Plan de travail 1</title><path id="twitter" class="cls-1" d="M43.83,12a6.37,6.37,0,0,0,.7-1.61,2.05,2.05,0,0,0-.2-1.6c-.3-.3-1.5.2-2.5.5s-2.9.6-2.9.6-1.2-3.59-3.2-5A8.33,8.33,0,0,0,29,4a12.19,12.19,0,0,0-6.1,3.4,22,22,0,0,0-2.7,5.6c-.4,1.2-1.1,3.21-2,3.4s-2.4-.4-3.8-1.3a76.45,76.45,0,0,1-6.6-5.3c-1.7-1.6-4.2-4.4-5-4.2s-1.7,3.1-1.7,5.2a7.29,7.29,0,0,0,1.8,4.1,8.57,8.57,0,0,0,.4,6.1,7.15,7.15,0,0,0,2.3,2.4,6.62,6.62,0,0,0,.2,3.1c.3,1,2.1,2.3,2.1,2.3a8.51,8.51,0,0,1-2.7,1.3c-1.6.5-4.8,0-5.1,0s0,4.3,0,4.9a1.88,1.88,0,0,0,1,1.5,45.89,45.89,0,0,0,11,4.21,21,21,0,0,0,14.5-1.41c3.6-1.59,7.5-6.4,10.1-10.3a45.31,45.31,0,0,0,4.2-9.5,26.92,26.92,0,0,0,2.3-1.5,5.56,5.56,0,0,0,1.9-3.8A4,4,0,0,0,43.83,12Zm-3,2.29c.4,0,2.1-1,2.3-.8s-.5,1.5-1.7,2.2a5.89,5.89,0,0,1-2.4,1c-.2-.11-1.1-1.7-1.2-1.7s-.6.39-.5.6,1.1,1.5,1,1.7-.2.29-.3.2a25.29,25.29,0,0,0-1.3-2.2c-.3-.1-.6.5-.5.8a19.1,19.1,0,0,1,1.4,2.1c0,.3-.3,1.4-.4,1.2a21.65,21.65,0,0,0-1.8-3c-.2,0-.5.7-.4.9a32.07,32.07,0,0,1,1.9,3.1c0,.3-.5,1.4-.7,1.2s-1.7-3.6-1.9-3.6-.6.6-.6.7,2,3.5,2.1,3.8-.4,1.7-.6,1.6-1.8-4.2-2-4.2-.5.6-.4.8,2,3.9,2,4.2-.3.8-.4.8-2.1-5.1-2.3-5.1-.5.5-.3,1.1,2.2,4.4,2.3,4.7-.5,1-.6.9-2.2-4.9-2.4-4.9-.5.8-.3,1.1,2.4,4.2,2.4,4.3a3.59,3.59,0,0,1-.7,1c-.2-.1-2-4.5-2.2-4.5a.77.77,0,0,0-.4,1c.2.5,2.2,3.9,2.1,4.1s-.6,1-.7.8a51.36,51.36,0,0,0-2.3-4.7c-.2,0-.8.5-.6.9s2.4,4.4,2.3,4.5a11,11,0,0,1-1,1.1c-.1-.1-2.3-4.7-2.5-4.6s-.6.4-.4.8a47.36,47.36,0,0,1,2.3,4.4c-.1.2-.6.6-.8.5s-2.4-4.7-2.6-4.7-.7.7-.6.9a38.52,38.52,0,0,1,2.5,4.2c-.1.2-.9.8-1,.7s-2-3.9-2.3-3.9-.7.6-.5.8,2.1,3.4,2.1,3.4-.9.6-1.1.4-1.7-3.7-1.8-3.7-.8.4-.5.8a20.46,20.46,0,0,1,1.7,3.2c-.2.1-.6.4-.8.2s-1.7-3.7-1.9-3.7-.8.3-.6.5a23.12,23.12,0,0,1,1.7,3.6c-.1.1-1.1.4-1.2.2a30.71,30.71,0,0,0-1.7-3.1c-.2,0-.5.4-.4.5s1.5,2.7,1.4,2.7a2.46,2.46,0,0,1-1.2.1c-.1-.1-1.4-3.1-1.6-3.2s-.7.4-.6.6,1.3,2.5,1.1,2.6-1,.09-1.1-.1a22.89,22.89,0,0,0-1.4-2.7.4.4,0,0,0-.5.5,25.88,25.88,0,0,1,1.2,2.5,4.87,4.87,0,0,1-1.2-.1,21,21,0,0,0-1.3-2.6c-.2-.1-.8-.1-.7.2s1.2,2.2,1,2.2a3.71,3.71,0,0,1-1.4-.4c-.2-.2-1.1-2.5-1.3-2.5s-.6.2-.6.5,1,1.9.7,1.9-1.3-.2-1.3-.4a10.08,10.08,0,0,0-1.2-2.3c-.2-.1-.8,0-.6.3a6.76,6.76,0,0,1,.7,1.7A23.43,23.43,0,0,1,5,33.22a12,12,0,0,1-3.5-2.6,12.14,12.14,0,0,0,4.5-.5,29.59,29.59,0,0,0,3.6-1.5c.1-.2-.2-.7-.3-.7s-2.2-.7-2.6-2.2-.1-3.2-.4-3.4a4.82,4.82,0,0,1-2.4-3c-.7-2.2.1-5.2-.1-5.4s-.4-.6-.6-.5-1.1-1.6-1.1-3.3a10.81,10.81,0,0,1,.8-3.8c.1,0,4.7,4.4,7.1,6.4s5.2,4.1,6.8,4.4,2.3.3,3.1-1.2,1.6-5.4,2.8-7.2a10.3,10.3,0,0,1,6.7-4.3c3.1-.5,5.5.4,6.7,2.1s1.3,4,1.6,4.2,1.6.1,3.3-.4a10.54,10.54,0,0,1,2.3-.7,4.36,4.36,0,0,1-1.4,1.9c-1,.9-1.8,1.5-1.8,1.9S40.43,14.31,40.83,14.31Zm-36.6-3c-.5-.4-.3-1.3-.2-1.9s-.9-.5-1.1.2a2.26,2.26,0,0,0,.6,2.2c.6.5,1.1.5,1.3.4S4.63,11.72,4.23,11.31Zm14.1,7.2c-.4-.1-1.3.5-2.3-.1s-1.9-1.7-2.4-1.5c-.3.1-.6.5.1,1.2a5.07,5.07,0,0,0,3.2,1.3C18.13,19.42,18.73,18.61,18.33,18.51Zm6.9-8.9c-.3-.1-1.3.61-1.8,1.5s-1.3,2.61-.7,2.9c.4.2.6-.1.9-1a9.71,9.71,0,0,1,1.2-2.5C25.23,10.22,25.53,9.72,25.23,9.61Z"/></svg>